<?xml version="1.0" encoding="iso-8859-1"?>
<!-- Generator: Adobe Illustrator 19.1.0, SVG Export Plug-In . SVG Version: 6.00 Build 0)  -->
<svg version="1.1" id="Capa_1" xmlns="http://www.w3.org/2000/svg" xmlns:xlink="http://www.w3.org/1999/xlink" x="0px" y="0px"
	 viewBox="0 0 346.342 346.342" style="enable-background:new 0 0 346.342 346.342;" xml:space="preserve">
<g>
	<path d="M145.298,269.387c-0.63,0-1.266-0.096-1.902-0.289c-31.209-9.685-55.817-34.024-65.824-65.117
		c-1.086-3.381,0.771-6.999,4.152-8.091c3.413-1.073,6.999,0.771,8.091,4.152c8.721,27.115,30.18,48.336,57.392,56.781
		c3.393,1.054,5.289,4.653,4.235,8.04C150.587,267.626,148.042,269.387,145.298,269.387z M265.062,152.303
		c3.4-1.022,5.334-4.602,4.319-8.001c-9.743-32.501-34.968-57.687-67.495-67.379c-3.426-1.015-6.98,0.932-7.995,4.325
		c-1.015,3.4,0.932,6.98,4.332,7.995c28.355,8.451,50.348,30.412,58.844,58.748c0.829,2.783,3.387,4.582,6.15,4.582
		C263.828,152.573,264.445,152.483,265.062,152.303z M144.507,288.764c1.041-3.393-0.874-6.986-4.267-8.021
		c-35.457-10.842-63.259-38.426-74.378-73.786c-1.067-3.374-4.653-5.27-8.059-4.203c-3.387,1.067-5.264,4.679-4.203,8.059
		c12.397,39.416,43.381,70.149,82.887,82.225c0.623,0.193,1.253,0.283,1.877,0.283C141.12,293.314,143.659,291.534,144.507,288.764z
		 M288.931,145.195c3.4-1.015,5.334-4.595,4.319-8.001c-12.198-40.83-43.908-72.347-84.815-84.32
		c-3.426-1.003-6.98,0.958-7.969,4.364c-1.003,3.406,0.951,6.973,4.357,7.976c36.717,10.739,65.162,39.03,76.119,75.663
		c0.842,2.789,3.387,4.589,6.163,4.589C287.704,145.471,288.333,145.381,288.931,145.195z M137.746,311.894
		c1.028-3.393-0.893-6.986-4.287-8.014c-43.143-13.091-76.993-46.582-90.554-89.59c-1.067-3.387-4.666-5.244-8.066-4.197
		c-3.381,1.067-5.264,4.679-4.197,8.066c14.84,47.057,51.877,83.703,99.089,98.028c0.623,0.186,1.247,0.276,1.864,0.276
		C134.353,316.457,136.904,314.664,137.746,311.894z M311.766,137.213c3.387-1.041,5.296-4.64,4.255-8.034
		c-14.724-47.822-52.128-84.911-100.066-99.217c-3.413-1.022-6.98,0.919-7.995,4.325c-1.015,3.4,0.913,6.98,4.319,7.995
		c43.818,13.066,78.002,46.967,91.454,90.676c0.855,2.764,3.387,4.544,6.138,4.544C310.5,137.496,311.142,137.406,311.766,137.213z
		 M247.112,173.171c0,40.836-33.098,73.941-73.934,73.941s-73.941-33.098-73.941-73.941c0-40.836,33.098-73.934,73.941-73.934
		C214.007,99.237,247.112,132.335,247.112,173.171z M186.057,173.171c0-7.108-5.771-12.879-12.879-12.879
		s-12.886,5.765-12.886,12.879c0,7.115,5.771,12.886,12.886,12.886C180.279,186.057,186.057,180.286,186.057,173.171z
		 M346.336,173.171c0,95.483-77.675,173.171-173.165,173.171c-95.483,0-173.165-77.688-173.165-173.171
		C0.006,77.688,77.688,0,173.171,0C268.661,0,346.336,77.688,346.336,173.171z M333.482,173.171
		c0-88.542-71.775-160.317-160.311-160.317S12.86,84.629,12.86,173.171s71.775,160.317,160.311,160.317
		S333.482,261.714,333.482,173.171z"/>
</g>
<g>
</g>
<g>
</g>
<g>
</g>
<g>
</g>
<g>
</g>
<g>
</g>
<g>
</g>
<g>
</g>
<g>
</g>
<g>
</g>
<g>
</g>
<g>
</g>
<g>
</g>
<g>
</g>
<g>
</g>
</svg>
